<svg width="512" height="512" viewBox="0 0 512 512" fill="none" xmlns="http://www.w3.org/2000/svg">
<g clip-path="url(#clip0_1101_19056)">
<path d="M512 0H0V512H512V0Z" fill="#54E09E"/>
<path d="M512 342.444H0V512.003H512V342.444Z" fill="#004D3D"/>
<path d="M91.2539 342.448V138.108H158.515V163.171C164.908 155.243 173.092 148.338 183.066 142.456C193.04 136.573 206.339 133.76 222.451 133.76C238.051 133.76 250.838 137.085 260.301 143.734C270.019 150.384 276.924 158.567 281.272 168.541C289.712 157.033 300.197 148.338 312.217 142.456C324.237 136.573 338.047 133.76 353.392 133.76C373.596 133.76 389.963 139.898 403.006 152.43C416.049 164.705 422.699 182.607 422.699 205.624V342.192H353.392V220.458C353.392 210.484 350.579 203.323 344.952 198.464C339.326 193.86 331.909 191.558 322.447 191.558C314.774 191.558 307.614 193.86 301.22 198.464C294.826 203.067 291.502 209.461 291.502 217.133V342.192H222.195V220.969C222.195 210.995 219.382 203.834 214.011 198.975C208.385 194.372 200.968 192.07 191.762 192.07C184.089 192.07 176.928 194.372 170.279 198.975C163.63 203.578 160.305 209.716 160.305 217.389V342.448H91.2539V342.448Z" fill="white"/>
</g>
<defs>
<clipPath id="clip0_1101_19056">
<rect width="512" height="512" fill="white"/>
</clipPath>
</defs>
</svg>
