<svg width="50" height="65" viewBox="0 0 50 65" fill="none" xmlns="http://www.w3.org/2000/svg">
<path d="M28.7689 48.5106C28.9259 48.3716 29.1204 48.2794 29.3279 48.241C40.786 46.1196 49.4545 36.2212 49.4545 24.3307C49.4545 10.8932 38.3838 0 24.7273 0C11.0708 0 0 10.8932 0 24.3307C0 36.2212 8.66855 46.1196 20.1266 48.241C20.3341 48.2794 20.5287 48.3716 20.6856 48.5106L22.774 50.36C22.9479 50.514 23.0686 50.7175 23.1193 50.9422L23.6033 53.0851C23.7272 54.4262 25.7273 54.4262 25.8512 53.0851L26.3352 50.9422C26.386 50.7175 26.5067 50.514 26.6805 50.36L28.7689 48.5106Z" fill="#0F4F3B"/>
<mask id="mask0_1480_70442" style="mask-type:alpha" maskUnits="userSpaceOnUse" x="0" y="0" width="50" height="55">
<path d="M28.7689 48.5106C28.9259 48.3716 29.1204 48.2794 29.3279 48.241C40.786 46.1196 49.4545 36.2212 49.4545 24.3307C49.4545 10.8932 38.3838 0 24.7273 0C11.0708 0 0 10.8932 0 24.3307C0 36.2212 8.66855 46.1196 20.1266 48.241C20.3341 48.2794 20.5287 48.3716 20.6856 48.5106L22.774 50.36C22.9479 50.514 23.0686 50.7175 23.1193 50.9422L23.6033 53.0851C23.7272 54.4262 25.7273 54.4262 25.8512 53.0851L26.3352 50.9422C26.386 50.7175 26.5067 50.514 26.6805 50.36L28.7689 48.5106Z" fill="#0F4F3B"/>
</mask>
<g mask="url(#mask0_1480_70442)">
<path d="M55.6385 -3.09082H-6.17969V47.9092H55.6385V-3.09082Z" fill="#54E09E"/>
<path d="M55.6385 34H-6.17969V47.9091H55.6385V34Z" fill="#004D3D"/>
<path d="M10.8125 33.5781V16.3079H16.4972V18.4261C17.0376 17.7561 17.7292 17.1725 18.5722 16.6753C19.4152 16.1782 20.5391 15.9404 21.9009 15.9404C23.2194 15.9404 24.3001 16.2214 25.0999 16.7834C25.9212 17.3454 26.5048 18.0371 26.8723 18.88C27.5856 17.9074 28.4718 17.1725 29.4877 16.6753C30.5035 16.1782 31.6707 15.9404 32.9676 15.9404C34.6752 15.9404 36.0585 16.4592 37.1609 17.5183C38.2632 18.5558 38.8252 20.0689 38.8252 22.0142V33.5565H32.9676V23.2678C32.9676 22.4249 32.7299 21.8196 32.2543 21.409C31.7788 21.0199 31.152 20.8254 30.3522 20.8254C29.7038 20.8254 29.0986 21.0199 28.5582 21.409C28.0179 21.798 27.7369 22.3384 27.7369 22.9868V33.5565H21.8793V23.3111C21.8793 22.4681 21.6415 21.8629 21.1876 21.4522C20.7121 21.0631 20.0852 20.8686 19.3071 20.8686C18.6587 20.8686 18.0534 21.0631 17.4915 21.4522C16.9295 21.8413 16.6485 22.36 16.6485 23.0085V33.5781H10.8125Z" fill="white"/>
</g>
<circle cx="24.7294" cy="61.0907" r="3.40909" fill="#54E09E" stroke="white"/>
</svg>
