<svg width="68" height="60" viewBox="0 0 68 60" fill="none" xmlns="http://www.w3.org/2000/svg">
<path d="M43.1813 23.3333C46.4013 23.3333 49.0146 25.9467 49.0146 29.1667V44.9967C49.0146 48.9758 47.4339 52.792 44.6203 55.6056C41.8066 58.4193 37.9904 60 34.0113 60C30.0322 60 26.216 58.4193 23.4023 55.6056C20.5887 52.792 19.008 48.9758 19.008 44.9967V29.1667C19.008 25.9467 21.618 23.3333 24.8413 23.3333H43.1813ZM43.1813 28.3333H24.8413C24.6203 28.3333 24.4083 28.4211 24.252 28.5774C24.0958 28.7337 24.008 28.9457 24.008 29.1667V44.9967C24.008 47.6497 25.0619 50.1941 26.9379 52.0701C28.8139 53.9461 31.3583 55 34.0113 55C36.6644 55 39.2087 53.9461 41.0847 52.0701C42.9607 50.1941 44.0146 47.6497 44.0146 44.9967V29.1667C44.0146 28.9457 43.9268 28.7337 43.7706 28.5774C43.6143 28.4211 43.4023 28.3333 43.1813 28.3333ZM6.5013 23.3333H17.7713C16.5953 24.7536 15.8771 26.4968 15.7113 28.3333H6.5013C6.28029 28.3333 6.06833 28.4211 5.91205 28.5774C5.75577 28.7337 5.66797 28.9457 5.66797 29.1667V39.9967C5.66776 41.2563 5.95298 42.4996 6.50221 43.6331C7.05144 44.7667 7.8504 45.7611 8.83907 46.5415C9.82775 47.322 10.9804 47.8683 12.2105 48.1394C13.4406 48.4105 14.7161 48.3993 15.9413 48.1067C16.2246 49.7867 16.7413 51.39 17.4513 52.88C15.4756 53.4086 13.4047 53.4756 11.399 53.076C9.39316 52.6765 7.50613 51.8209 5.88379 50.5756C4.26145 49.3302 2.94726 47.7284 2.04285 45.8941C1.13843 44.0597 0.66801 42.0419 0.667969 39.9967V29.1667C0.667969 25.9467 3.2813 23.3333 6.5013 23.3333ZM50.2513 23.3333H61.5013C64.7213 23.3333 67.3346 25.9467 67.3346 29.1667V40C67.3351 42.0439 66.8657 44.0605 65.9626 45.8941C65.0595 47.7276 63.747 49.329 62.1265 50.5746C60.506 51.8201 58.6208 52.6764 56.6166 53.0773C54.6124 53.4782 52.5429 53.413 50.568 52.8867C51.2813 51.3933 51.798 49.79 52.0846 48.11C53.3083 48.3992 54.5815 48.4077 55.8088 48.135C57.0362 47.8623 58.186 47.3154 59.172 46.5352C60.158 45.7551 60.9547 44.7619 61.5024 43.6301C62.0501 42.4984 62.3346 41.2573 62.3346 40V29.1667C62.3346 28.9457 62.2468 28.7337 62.0906 28.5774C61.9343 28.4211 61.7223 28.3333 61.5013 28.3333H52.3113C52.1455 26.4968 51.4273 24.7536 50.2513 23.3333ZM34.0013 0C36.6535 0 39.197 1.05357 41.0724 2.92893C42.9477 4.8043 44.0013 7.34784 44.0013 10C44.0013 12.6522 42.9477 15.1957 41.0724 17.0711C39.197 18.9464 36.6535 20 34.0013 20C31.3491 20 28.8056 18.9464 26.9302 17.0711C25.0549 15.1957 24.0013 12.6522 24.0013 10C24.0013 7.34784 25.0549 4.8043 26.9302 2.92893C28.8056 1.05357 31.3491 0 34.0013 0ZM55.668 3.33333C57.8781 3.33333 59.9977 4.21131 61.5605 5.77411C63.1233 7.33691 64.0013 9.45653 64.0013 11.6667C64.0013 13.8768 63.1233 15.9964 61.5605 17.5592C59.9977 19.122 57.8781 20 55.668 20C53.4578 20 51.3382 19.122 49.7754 17.5592C48.2126 15.9964 47.3346 13.8768 47.3346 11.6667C47.3346 9.45653 48.2126 7.33691 49.7754 5.77411C51.3382 4.21131 53.4578 3.33333 55.668 3.33333ZM12.3346 3.33333C14.5448 3.33333 16.6644 4.21131 18.2272 5.77411C19.79 7.33691 20.668 9.45653 20.668 11.6667C20.668 13.8768 19.79 15.9964 18.2272 17.5592C16.6644 19.122 14.5448 20 12.3346 20C10.1245 20 8.00488 19.122 6.44208 17.5592C4.87928 15.9964 4.0013 13.8768 4.0013 11.6667C4.0013 9.45653 4.87928 7.33691 6.44208 5.77411C8.00488 4.21131 10.1245 3.33333 12.3346 3.33333ZM34.0013 5C32.6752 5 31.4034 5.52678 30.4658 6.46447C29.5281 7.40215 29.0013 8.67392 29.0013 10C29.0013 11.3261 29.5281 12.5979 30.4658 13.5355C31.4034 14.4732 32.6752 15 34.0013 15C35.3274 15 36.5992 14.4732 37.5368 13.5355C38.4745 12.5979 39.0013 11.3261 39.0013 10C39.0013 8.67392 38.4745 7.40215 37.5368 6.46447C36.5992 5.52678 35.3274 5 34.0013 5ZM55.668 8.33333C54.7839 8.33333 53.9361 8.68452 53.3109 9.30964C52.6858 9.93477 52.3346 10.7826 52.3346 11.6667C52.3346 12.5507 52.6858 13.3986 53.3109 14.0237C53.9361 14.6488 54.7839 15 55.668 15C56.552 15 57.3999 14.6488 58.025 14.0237C58.6501 13.3986 59.0013 12.5507 59.0013 11.6667C59.0013 10.7826 58.6501 9.93477 58.025 9.30964C57.3999 8.68452 56.552 8.33333 55.668 8.33333ZM12.3346 8.33333C11.4506 8.33333 10.6027 8.68452 9.97761 9.30964C9.35249 9.93477 9.0013 10.7826 9.0013 11.6667C9.0013 12.5507 9.35249 13.3986 9.97761 14.0237C10.6027 14.6488 11.4506 15 12.3346 15C13.2187 15 14.0665 14.6488 14.6917 14.0237C15.3168 13.3986 15.668 12.5507 15.668 11.6667C15.668 10.7826 15.3168 9.93477 14.6917 9.30964C14.0665 8.68452 13.2187 8.33333 12.3346 8.33333Z" fill="#004C3D"/>
</svg>
