<svg width="60" height="60" viewBox="0 0 60 60" fill="none" xmlns="http://www.w3.org/2000/svg">
<path d="M30.0009 1.12986e-05C36.0506 0.00017978 41.9589 1.82939 46.9504 5.24756C51.9419 8.66574 55.7834 13.5132 57.9707 19.1537C60.1579 24.7941 60.5887 30.9641 59.2066 36.8539C57.8245 42.7436 54.694 48.0778 50.2259 52.1566C45.7579 56.2353 40.1611 58.8678 34.1701 59.7088C28.1791 60.5497 22.0739 59.5597 16.6556 56.8687C11.2373 54.1777 6.75922 49.9114 3.80901 44.6298C0.858805 39.3482 -0.425662 33.298 0.124191 27.2733C0.153738 26.9464 0.247402 26.6284 0.399834 26.3376C0.552267 26.0468 0.760483 25.7889 1.01259 25.5785C1.2647 25.3682 1.55577 25.2096 1.86918 25.1118C2.18259 25.0139 2.5122 24.9788 2.83919 25.0083C3.16618 25.0379 3.48415 25.1316 3.77495 25.284C4.06574 25.4364 4.32366 25.6446 4.53399 25.8967C4.74431 26.1489 4.90292 26.4399 5.00075 26.7533C5.09859 27.0667 5.13374 27.3964 5.10419 27.7233C4.76126 31.3759 5.23076 35.0591 6.47902 38.5088C7.72728 41.9585 9.72338 45.0893 12.3242 47.6767C14.6411 50.0041 17.396 51.8496 20.43 53.1066C23.4639 54.3635 26.7168 55.007 30.0009 55C34.2624 54.9992 38.453 53.9089 42.1747 51.8329C45.8964 49.7569 49.0256 46.7639 51.2652 43.1383C53.5048 39.5127 54.7804 35.3748 54.9709 31.1175C55.1613 26.8602 54.2604 22.6249 52.3535 18.8137C50.4467 15.0026 47.5973 11.7421 44.0759 9.34201C40.5545 6.9419 36.478 5.48179 32.2335 5.10036C27.9891 4.71892 23.7176 5.42881 19.8247 7.16261C15.9317 8.89642 12.5467 11.5966 9.99086 15.0067H19.1775C19.8109 15.0069 20.4207 15.2475 20.8835 15.6799C21.3463 16.1123 21.6278 16.7043 21.6709 17.3363C21.7141 17.9682 21.5158 18.593 21.1161 19.0843C20.7164 19.5757 20.145 19.897 19.5175 19.9833L19.1775 20.0067H4.16752C3.5634 20.0066 2.97972 19.7879 2.52442 19.3908C2.06913 18.9937 1.77302 18.4452 1.69086 17.8467L1.66752 17.5067V2.50668C1.66772 1.87327 1.90834 1.26354 2.34077 0.800706C2.77319 0.33787 3.36519 0.0564311 3.99712 0.0132578C4.62906 -0.0299155 5.25383 0.168396 5.74519 0.56812C6.23654 0.967844 6.55785 1.53918 6.64419 2.16668L6.66752 2.50668L6.66419 11.1433C9.47452 7.66058 13.0295 4.85181 17.068 2.92344C21.1064 0.995072 25.5256 -0.00387544 30.0009 1.12986e-05ZM27.5009 13.3333C28.105 13.3334 28.6887 13.5522 29.144 13.9492C29.5993 14.3463 29.8954 14.8948 29.9775 15.4933L30.0009 15.8333V30H37.5009C38.1343 30.0002 38.744 30.2408 39.2068 30.6733C39.6697 31.1057 39.9511 31.6977 39.9943 32.3296C40.0374 32.9615 39.8391 33.5863 39.4394 34.0777C39.0397 34.569 38.4684 34.8903 37.8409 34.9767L37.5009 35H27.5009C26.8967 35 26.313 34.7812 25.8578 34.3841C25.4025 33.987 25.1063 33.4385 25.0242 32.84L25.0009 32.5V15.8333C25.0009 15.1703 25.2642 14.5344 25.7331 14.0656C26.2019 13.5967 26.8378 13.3333 27.5009 13.3333Z" fill="#004C3D"/>
</svg>
