<svg width="57" height="68" viewBox="0 0 57 68" fill="none" xmlns="http://www.w3.org/2000/svg">
<path d="M33.3324 0.679688C35.8808 0.678593 38.3334 1.65115 40.1885 3.39844C42.0436 5.14574 43.1611 7.53576 43.3124 10.0797L43.3291 10.663L50.8291 10.6664C53.7224 10.6664 56.1224 12.7664 56.5857 15.5297L56.6457 16.023L56.6657 16.4997L56.6624 29.003L50.0024 29.003C48.8251 29.0009 47.6847 29.4143 46.7823 30.1704C45.8798 30.9265 45.2731 31.9768 45.0691 33.1364L45.0191 33.5764L45.0024 34.003C45.0003 35.1804 45.4137 36.3207 46.1698 37.2231C46.9259 38.1256 47.9762 38.7323 49.1357 38.9364L49.5757 38.9864L50.0024 39.003H56.6657V51.5097C56.6657 52.9737 56.1152 54.3841 55.1235 55.461C54.1318 56.5379 52.7714 57.2026 51.3124 57.323L50.8357 57.343L43.3324 57.3397L43.3191 57.9164C43.181 60.2571 42.2247 62.4749 40.6174 64.1821C39.01 65.8894 36.8539 66.9775 34.5257 67.2564L33.9257 67.3097L33.3357 67.3264C30.7872 67.3267 28.3347 66.354 26.4792 64.6069C24.6237 62.8599 23.5053 60.4703 23.3524 57.9264L23.3324 57.3397L15.8324 57.3397C14.4537 57.3401 13.1195 56.8522 12.0663 55.9626C11.0131 55.0729 10.3091 53.839 10.0791 52.4797L10.0191 51.9864L9.99906 51.5097L9.99573 43.9997L9.4524 43.983C7.11107 43.8457 4.8925 42.8897 3.18458 41.2823C1.47666 39.675 0.388043 37.5184 0.109062 35.1897L0.0557288 34.5897L0.0390625 33.9997C0.0389204 31.449 1.01348 28.9946 2.76334 27.1388C4.5132 25.283 6.90609 24.166 9.4524 24.0164L9.99573 23.9997L9.99573 16.4997C9.99573 13.6097 12.1024 11.2097 14.8624 10.7464L15.3524 10.6864L15.8324 10.6664L23.3291 10.663L23.3491 10.093C23.4864 7.75169 24.4424 5.53313 26.0497 3.82521C27.6571 2.11728 29.8137 1.02867 32.1424 0.749689L32.7424 0.696355L33.3324 0.679688ZM33.3324 5.67969C32.0895 5.67975 30.8911 6.14275 29.971 6.97842C29.0509 7.81408 28.4751 8.96249 28.3557 10.1997L28.3324 10.683L28.3257 15.663L15.8324 15.6664C15.6447 15.6667 15.4625 15.7304 15.3155 15.8471C15.1685 15.9639 15.0652 16.1269 15.0224 16.3097L14.9991 16.4997L14.9957 29.003L10.0391 29.003C8.75501 29.0037 7.52041 29.4983 6.59111 30.3844C5.6618 31.2705 5.10902 32.4802 5.04732 33.7627C4.98561 35.0453 5.4197 36.3025 6.25965 37.2737C7.09959 38.2449 8.281 38.8558 9.55906 38.9797L10.0391 39.003H14.9991L14.9991 51.5097C14.9996 51.6979 15.0637 51.8804 15.1811 52.0275C15.2986 52.1745 15.4623 52.2775 15.6457 52.3197L15.8357 52.343L28.3291 52.343L28.3357 57.3264C28.3355 58.6107 28.8295 59.8459 29.7154 60.7758C30.6012 61.7058 31.8109 62.2592 33.0938 62.3214C34.3766 62.3835 35.6342 61.9496 36.6058 61.1096C37.5774 60.2697 38.1885 59.088 38.3124 57.8097L38.3324 57.333L38.3257 52.343H50.8324C51.0197 52.3429 51.2015 52.2797 51.3484 52.1636C51.4954 52.0474 51.5989 51.8852 51.6424 51.703L51.6657 51.513L51.6624 43.9997H49.9191L49.3191 43.9797C46.8803 43.8096 44.5881 42.7529 42.8749 41.009C41.1616 39.265 40.1458 36.9544 40.0191 34.513L40.0057 33.9197L40.0257 33.3197C40.192 30.8915 41.2381 28.6074 42.968 26.8953C44.6978 25.1833 46.9927 24.1608 49.4224 24.0197L49.9991 24.003H51.6591L51.6591 16.4997C51.6595 16.3498 51.6194 16.2025 51.5432 16.0735C51.4669 15.9444 51.3572 15.8383 51.2257 15.7664L51.0191 15.6897L50.8291 15.6664L38.3224 15.663L38.3291 10.6797C38.3291 9.35361 37.8023 8.08184 36.8646 7.14416C35.9269 6.20647 34.6551 5.67969 33.3291 5.67969H33.3324Z" fill="#004C3D"/>
</svg>
