<svg width="50" height="68" viewBox="0 0 50 68" fill="none" xmlns="http://www.w3.org/2000/svg">
<path d="M24.9987 0.669922C31.4081 0.669922 37.555 3.21605 42.0871 7.74818C46.6192 12.2803 49.1654 18.4272 49.1654 24.8366C49.1654 31.8233 46.1654 38.2366 40.2887 43.9766C40.0334 44.226 39.8345 44.5272 39.7054 44.8599L39.5987 45.2033L35.832 61.5199C35.4725 63.0763 34.6255 64.4772 33.4144 65.5186C32.2033 66.5601 30.6913 67.1876 29.0987 67.3099L28.522 67.3333H21.4754C19.8782 67.3333 18.3227 66.8234 17.0355 65.8779C15.7482 64.9324 14.7964 63.6007 14.3187 62.0766L14.1687 61.5199L10.402 45.2033C10.2952 44.7371 10.0569 44.3114 9.71536 43.9766C4.11536 38.5099 1.12536 32.4333 0.852031 25.8299L0.832031 24.8366L0.845365 24.0366C1.0538 17.7697 3.68982 11.8293 8.19669 7.4698C12.7036 3.11034 18.7284 0.67325 24.9987 0.673256V0.669922ZM32.0487 55.6633H17.9454L19.042 60.3966C19.1565 60.8889 19.4175 61.335 19.7906 61.676C20.1637 62.0169 20.6314 62.2368 21.132 62.3066L21.4754 62.3333H28.522C29.0282 62.3327 29.5223 62.1784 29.939 61.891C30.3556 61.6035 30.6752 61.1963 30.8554 60.7233L30.9554 60.3933L32.0487 55.6633ZM24.9987 5.66992C20.0422 5.66974 15.2784 7.58964 11.7072 11.0266C8.13594 14.4636 6.035 19.1504 5.84537 24.1033L5.83203 24.8366L5.85536 25.7599C6.1087 30.9699 8.52203 35.8266 13.2087 40.3999C14.0887 41.2599 14.742 42.3199 15.112 43.4866L15.2754 44.0799L16.792 50.6633H33.202L34.7287 44.0766C35.0037 42.8806 35.568 41.7704 36.372 40.8433L36.7954 40.3999C41.4754 35.8233 43.8887 30.9733 44.142 25.7599L44.1654 24.8366L44.152 24.1033C43.9632 19.1498 41.8627 14.4622 38.2913 11.0245C34.72 7.5868 29.9557 5.66644 24.9987 5.66659V5.66992Z" fill="#004C3D"/>
</svg>
