<svg width="54" height="71" viewBox="0 0 54 71" fill="none" xmlns="http://www.w3.org/2000/svg">
<path d="M19.0835 39.6667L22.0835 30.0834L14.1668 23.9167H23.8335L27.0002 14.0001L30.0835 23.9167H39.8335L31.9168 30.0834L34.8335 39.6667L27.0002 33.7501L19.0835 39.6667ZM7.3335 70.6667V45.3334C4.8335 42.7223 3.04183 39.8612 1.9585 36.7501C0.875163 33.639 0.333496 30.5001 0.333496 27.3334C0.333496 19.7779 2.88905 13.4445 8.00016 8.33342C13.1113 3.2223 19.4446 0.666748 27.0002 0.666748C34.5557 0.666748 40.8891 3.2223 46.0002 8.33342C51.1113 13.4445 53.6668 19.7779 53.6668 27.3334C53.6668 30.5001 53.1252 33.639 52.0418 36.7501C50.9585 39.8612 49.1668 42.7223 46.6668 45.3334V70.6667L27.0002 64.0834L7.3335 70.6667ZM27.0002 49.0001C33.0557 49.0001 38.1807 46.9029 42.3752 42.7084C46.5696 38.514 48.6668 33.389 48.6668 27.3334C48.6668 21.2779 46.5696 16.1529 42.3752 11.9584C38.1807 7.76397 33.0557 5.66675 27.0002 5.66675C20.9446 5.66675 15.8196 7.76397 11.6252 11.9584C7.43072 16.1529 5.3335 21.2779 5.3335 27.3334C5.3335 33.389 7.43072 38.514 11.6252 42.7084C15.8196 46.9029 20.9446 49.0001 27.0002 49.0001ZM12.3335 63.6667L27.0002 59.0834L41.6668 63.6667V49.4167C39.4446 51.0279 37.0557 52.1945 34.5002 52.9167C31.9446 53.639 29.4446 54.0001 27.0002 54.0001C24.5557 54.0001 22.0557 53.639 19.5002 52.9167C16.9446 52.1945 14.5557 51.0279 12.3335 49.4167V63.6667Z" fill="#0F4F3B"/>
</svg>
