<svg width="66" height="60" viewBox="0 0 66 60" fill="none" xmlns="http://www.w3.org/2000/svg">
<path d="M42.0882 23.3333C45.276 23.3333 47.8632 25.9467 47.8632 29.1667V44.9967C47.8632 48.9758 46.2983 52.792 43.5128 55.6056C40.7272 58.4193 36.9492 60 33.0099 60C29.0706 60 25.2926 58.4193 22.507 55.6056C19.7215 52.792 18.1566 48.9758 18.1566 44.9967V29.1667C18.1566 25.9467 20.7405 23.3333 23.9316 23.3333H42.0882ZM42.0882 28.3333H23.9316C23.7128 28.3333 23.503 28.4211 23.3482 28.5774C23.1935 28.7337 23.1066 28.9457 23.1066 29.1667V44.9967C23.1066 47.6497 24.15 50.1941 26.0072 52.0701C27.8644 53.9461 30.3834 55 33.0099 55C35.6364 55 38.1554 53.9461 40.0126 52.0701C41.8698 50.1941 42.9132 47.6497 42.9132 44.9967V29.1667C42.9132 28.9457 42.8263 28.7337 42.6716 28.5774C42.5168 28.4211 42.307 28.3333 42.0882 28.3333ZM5.775 23.3333H16.9323C15.7681 24.7536 15.057 26.4968 14.8929 28.3333H5.775C5.5562 28.3333 5.34635 28.4211 5.19164 28.5774C5.03692 28.7337 4.95 28.9457 4.95 29.1667V39.9967C4.94979 41.2563 5.23216 42.4996 5.7759 43.6331C6.31964 44.7667 7.11061 45.7611 8.08939 46.5415C9.06818 47.322 10.2093 47.8683 11.4271 48.1394C12.6449 48.4105 13.9077 48.3993 15.1206 48.1067C15.4011 49.7867 15.9126 51.39 16.6155 52.88C14.6595 53.4086 12.6094 53.4756 10.6237 53.076C8.63793 52.6765 6.76978 51.8209 5.16367 50.5756C3.55755 49.3302 2.2565 47.7284 1.36113 45.8941C0.465754 44.0597 4.05893e-05 42.0419 0 39.9967V29.1667C0 25.9467 2.5872 23.3333 5.775 23.3333ZM49.0875 23.3333H60.225C63.4128 23.3333 66 25.9467 66 29.1667V40C66.0005 42.0439 65.5357 44.0605 64.6417 45.8941C63.7477 47.7276 62.4483 49.329 60.844 50.5746C59.2396 51.8201 57.3733 52.6764 55.3892 53.0773C53.405 53.4782 51.3562 53.413 49.401 52.8867C50.1072 51.3933 50.6187 49.79 50.9025 48.11C52.1139 48.3992 53.3743 48.4077 54.5895 48.135C55.8046 47.8623 56.9429 47.3154 57.919 46.5352C58.8952 45.7551 59.6839 44.7619 60.2261 43.6301C60.7684 42.4984 61.05 41.2573 61.05 40V29.1667C61.05 28.9457 60.9631 28.7337 60.8084 28.5774C60.6536 28.4211 60.4438 28.3333 60.225 28.3333H51.1269C50.9628 26.4968 50.2517 24.7536 49.0875 23.3333ZM33 0C35.6256 0 38.1437 1.05357 40.0004 2.92893C41.857 4.8043 42.9 7.34784 42.9 10C42.9 12.6522 41.857 15.1957 40.0004 17.0711C38.1437 18.9464 35.6256 20 33 20C30.3744 20 27.8563 18.9464 25.9996 17.0711C24.143 15.1957 23.1 12.6522 23.1 10C23.1 7.34784 24.143 4.8043 25.9996 2.92893C27.8563 1.05357 30.3744 0 33 0ZM54.45 3.33333C56.638 3.33333 58.7365 4.21131 60.2836 5.77411C61.8308 7.33691 62.7 9.45653 62.7 11.6667C62.7 13.8768 61.8308 15.9964 60.2836 17.5592C58.7365 19.122 56.638 20 54.45 20C52.262 20 50.1635 19.122 48.6164 17.5592C47.0692 15.9964 46.2 13.8768 46.2 11.6667C46.2 9.45653 47.0692 7.33691 48.6164 5.77411C50.1635 4.21131 52.262 3.33333 54.45 3.33333ZM11.55 3.33333C13.738 3.33333 15.8365 4.21131 17.3836 5.77411C18.9308 7.33691 19.8 9.45653 19.8 11.6667C19.8 13.8768 18.9308 15.9964 17.3836 17.5592C15.8365 19.122 13.738 20 11.55 20C9.36196 20 7.26354 19.122 5.71637 17.5592C4.16919 15.9964 3.3 13.8768 3.3 11.6667C3.3 9.45653 4.16919 7.33691 5.71637 5.77411C7.26354 4.21131 9.36196 3.33333 11.55 3.33333ZM33 5C31.6872 5 30.4281 5.52678 29.4998 6.46447C28.5715 7.40215 28.05 8.67392 28.05 10C28.05 11.3261 28.5715 12.5979 29.4998 13.5355C30.4281 14.4732 31.6872 15 33 15C34.3128 15 35.5719 14.4732 36.5002 13.5355C37.4285 12.5979 37.95 11.3261 37.95 10C37.95 8.67392 37.4285 7.40215 36.5002 6.46447C35.5719 5.52678 34.3128 5 33 5ZM54.45 8.33333C53.5748 8.33333 52.7354 8.68452 52.1165 9.30964C51.4977 9.93477 51.15 10.7826 51.15 11.6667C51.15 12.5507 51.4977 13.3986 52.1165 14.0237C52.7354 14.6488 53.5748 15 54.45 15C55.3252 15 56.1646 14.6488 56.7835 14.0237C57.4023 13.3986 57.75 12.5507 57.75 11.6667C57.75 10.7826 57.4023 9.93477 56.7835 9.30964C56.1646 8.68452 55.3252 8.33333 54.45 8.33333ZM11.55 8.33333C10.6748 8.33333 9.83542 8.68452 9.21655 9.30964C8.59768 9.93477 8.25 10.7826 8.25 11.6667C8.25 12.5507 8.59768 13.3986 9.21655 14.0237C9.83542 14.6488 10.6748 15 11.55 15C12.4252 15 13.2646 14.6488 13.8835 14.0237C14.5023 13.3986 14.85 12.5507 14.85 11.6667C14.85 10.7826 14.5023 9.93477 13.8835 9.30964C13.2646 8.68452 12.4252 8.33333 11.55 8.33333Z" fill="#0F4F3B"/>
</svg>
