<svg width="68" height="60" viewBox="0 0 68 60" fill="none" xmlns="http://www.w3.org/2000/svg">
<path d="M30.6665 60V55H58.9998V29.6667C58.9998 26.4444 58.3054 23.3472 56.9165 20.375C55.5276 17.4028 53.6665 14.7778 51.3332 12.5C48.9998 10.2222 46.3332 8.40278 43.3332 7.04167C40.3332 5.68056 37.2221 5 33.9998 5C30.7776 5 27.6665 5.68056 24.6665 7.04167C21.6665 8.40278 18.9998 10.2222 16.6665 12.5C14.3332 14.7778 12.4721 17.4028 11.0832 20.375C9.69428 23.3472 8.99984 26.4444 8.99984 29.6667V50H7.33317C5.49984 50 3.93039 49.3472 2.62484 48.0417C1.31928 46.7361 0.666504 45.1667 0.666504 43.3333V36.6667C0.666504 35.3889 0.972059 34.2639 1.58317 33.2917C2.19428 32.3194 2.99984 31.5278 3.99984 30.9167L4.24984 26.5C4.74984 22.4444 5.90261 18.7778 7.70817 15.5C9.51373 12.2222 11.7637 9.44444 14.4582 7.16667C17.1526 4.88889 20.1804 3.125 23.5415 1.875C26.9026 0.625 30.3887 0 33.9998 0C37.6665 0 41.1804 0.625 44.5415 1.875C47.9026 3.125 50.9165 4.90278 53.5832 7.20833C56.2498 9.51389 58.4859 12.2917 60.2915 15.5417C62.0971 18.7917 63.2498 22.4167 63.7498 26.4167L63.9998 30.75C64.9998 31.25 65.8054 31.9861 66.4165 32.9583C67.0276 33.9306 67.3332 35 67.3332 36.1667V43.8333C67.3332 45.0556 67.0276 46.1389 66.4165 47.0833C65.8054 48.0278 64.9998 48.75 63.9998 49.25V55C63.9998 56.375 63.5103 57.5521 62.5311 58.5312C61.5519 59.5104 60.3748 60 58.9998 60H30.6665ZM23.9998 35.8333C23.3332 35.8333 22.7498 35.5833 22.2498 35.0833C21.7498 34.5833 21.4998 33.9861 21.4998 33.2917C21.4998 32.5972 21.7498 32.0139 22.2498 31.5417C22.7498 31.0694 23.3471 30.8333 24.0415 30.8333C24.7359 30.8333 25.3193 31.0729 25.7915 31.5521C26.2637 32.0312 26.4998 32.625 26.4998 33.3333C26.4998 34 26.2603 34.5833 25.7811 35.0833C25.3019 35.5833 24.7082 35.8333 23.9998 35.8333ZM43.9998 35.8333C43.3332 35.8333 42.7498 35.5833 42.2498 35.0833C41.7498 34.5833 41.4998 33.9861 41.4998 33.2917C41.4998 32.5972 41.7498 32.0139 42.2498 31.5417C42.7498 31.0694 43.3471 30.8333 44.0415 30.8333C44.7359 30.8333 45.3193 31.0729 45.7915 31.5521C46.2637 32.0312 46.4998 32.625 46.4998 33.3333C46.4998 34 46.2603 34.5833 45.7811 35.0833C45.3019 35.5833 44.7082 35.8333 43.9998 35.8333ZM14.0832 31.5C13.8609 28.2222 14.3193 25.25 15.4582 22.5833C16.5971 19.9167 18.1248 17.6528 20.0415 15.7917C21.9582 13.9306 24.1665 12.5 26.6665 11.5C29.1665 10.5 31.6665 10 34.1665 10C39.2221 10 43.4721 11.5972 46.9165 14.7917C50.3609 17.9861 52.4721 21.9722 53.2498 26.75C48.0276 26.6944 43.4304 25.2917 39.4582 22.5417C35.4859 19.7917 32.4165 16.2222 30.2498 11.8333C29.3609 16.3333 27.4859 20.3194 24.6248 23.7917C21.7637 27.2639 18.2498 29.8333 14.0832 31.5Z" fill="#0F4F3B"/>
</svg>
