<svg width="50" height="68" viewBox="0 0 50 68" fill="none" xmlns="http://www.w3.org/2000/svg">
<path d="M25.0002 67.3334C23.5002 67.3334 22.1807 66.9723 21.0418 66.2501C19.9029 65.5279 19.1668 64.5279 18.8335 63.2501H17.6668C16.3335 63.2501 15.1668 62.7501 14.1668 61.7501C13.1668 60.7501 12.6668 59.5834 12.6668 58.2501V46.3334C9.00016 43.9445 6.11127 40.889 4.00016 37.1667C1.88905 33.4445 0.833496 29.3334 0.833496 24.8334C0.833496 18.1112 3.18072 12.4029 7.87516 7.70841C12.5696 3.01397 18.2779 0.666748 25.0002 0.666748C31.7224 0.666748 37.4307 3.01397 42.1252 7.70841C46.8196 12.4029 49.1668 18.1112 49.1668 24.8334C49.1668 29.3334 48.1113 33.4445 46.0002 37.1667C43.889 40.889 41.0002 43.9445 37.3335 46.3334V58.2501C37.3335 59.5834 36.8335 60.7501 35.8335 61.7501C34.8335 62.7501 33.6668 63.2501 32.3335 63.2501H31.1668C30.8335 64.5279 30.0974 65.5279 28.9585 66.2501C27.8196 66.9723 26.5002 67.3334 25.0002 67.3334ZM17.6668 58.2501H32.3335V54.5834H17.6668V58.2501ZM17.6668 51.2501H32.3335V47.9167H17.6668V51.2501ZM16.9168 42.9167H23.0835V31.5001L15.4168 23.8334L18.0002 21.2501L25.0002 28.2501L32.0002 21.2501L34.5835 23.8334L26.9168 31.5001V42.9167H33.0835C36.4168 41.3612 39.0974 38.9445 41.1252 35.6667C43.1529 32.389 44.1668 28.7779 44.1668 24.8334C44.1668 19.4445 42.3196 14.9029 38.6252 11.2084C34.9307 7.51397 30.389 5.66675 25.0002 5.66675C19.6113 5.66675 15.0696 7.51397 11.3752 11.2084C7.68072 14.9029 5.8335 19.4445 5.8335 24.8334C5.8335 28.7779 6.84738 32.389 8.87516 35.6667C10.9029 38.9445 13.5835 41.3612 16.9168 42.9167Z" fill="#0F4F3B"/>
</svg>
