<svg width="56" height="66" viewBox="0 0 56 66" fill="none" xmlns="http://www.w3.org/2000/svg">
<path d="M32.9249 9.15627e-07C35.4451 -0.00108402 37.8705 0.962033 39.7051 2.69238C41.5397 4.42272 42.6448 6.78955 42.7944 9.30879L42.8109 9.88647L50.2279 9.88977C53.0892 9.88977 55.4627 11.9694 55.9209 14.7059L55.9802 15.1945L56 15.6665L55.9967 28.0485L49.4104 28.0485C48.2461 28.0464 47.1184 28.4558 46.2259 29.2046C45.3335 29.9534 44.7335 30.9935 44.5317 32.1417L44.4822 32.5775L44.4657 33C44.4636 34.1659 44.8725 35.2952 45.6202 36.1889C46.368 37.0826 47.4066 37.6834 48.5533 37.8855L48.9885 37.935L49.4104 37.9515H56V50.3368C55.9999 51.7866 55.4555 53.1833 54.4748 54.2498C53.4941 55.3162 52.1488 55.9744 50.7059 56.0937L50.2345 56.1135L42.8142 56.1102L42.801 56.6813C42.6644 58.9993 41.7188 61.1956 40.1292 62.8863C38.5397 64.5769 36.4074 65.6545 34.105 65.9307L33.5117 65.9835L32.9282 66C30.4079 66.0003 27.9825 65.0371 26.1475 63.307C24.3126 61.5768 23.2066 59.2105 23.0553 56.6912L23.0356 56.1102L15.6186 56.1102C14.2552 56.1107 12.9357 55.6275 11.8942 54.7465C10.8526 53.8655 10.1564 52.6435 9.92889 51.2974L9.86955 50.8088L9.84978 50.3368L9.84648 42.8997L9.30916 42.8832C6.99374 42.7471 4.79973 41.8005 3.11071 40.2087C1.42168 38.6169 0.345118 36.4813 0.0692251 34.1752L0.0164818 33.581L1.53629e-08 32.9967C-0.0001405 30.4707 0.963634 28.0402 2.69413 26.2024C4.42463 24.3646 6.79103 23.2584 9.30916 23.1102L9.84648 23.0937L9.84648 15.6665C9.84648 12.8045 11.9298 10.4278 14.6593 9.96899L15.1439 9.90957L15.6186 9.88977L23.0323 9.88647L23.052 9.322C23.1879 7.00339 24.1332 4.80635 25.7228 3.115C27.3124 1.42365 29.4451 0.345596 31.7481 0.0693222L32.3414 0.0165062L32.9249 9.15627e-07ZM32.9249 4.95149C31.6957 4.95155 30.5106 5.41006 29.6007 6.23761C28.6908 7.06517 28.1213 8.20243 28.0033 9.42763L27.9802 9.90627L27.9736 14.838L15.6186 14.8413C15.4329 14.8416 15.2528 14.9046 15.1074 15.0203C14.962 15.1359 14.8598 15.2973 14.8175 15.4783L14.7944 15.6665L14.7911 28.0485L9.88933 28.0485C8.61949 28.0491 7.39856 28.539 6.47954 29.4165C5.56051 30.294 5.01385 31.4919 4.95283 32.7621C4.8918 34.0322 5.32109 35.2771 6.15174 36.2389C6.98239 37.2007 8.15073 37.8057 9.41465 37.9284L9.88933 37.9515H14.7944L14.7944 50.3368C14.7949 50.5232 14.8584 50.7039 14.9745 50.8495C15.0906 50.9952 15.2526 51.0972 15.434 51.1389L15.6219 51.1621L27.9769 51.1621L27.9835 56.097C27.9833 57.3689 28.4718 58.5921 29.3479 59.513C30.2239 60.434 31.4203 60.982 32.6889 61.0436C33.9576 61.1051 35.2012 60.6754 36.162 59.8436C37.1229 59.0118 37.7272 57.8416 37.8498 56.5757L37.8696 56.1036L37.863 51.1621H50.2312C50.4164 51.1619 50.5962 51.0993 50.7415 50.9843C50.8869 50.8693 50.9893 50.7087 51.0323 50.5283L51.0553 50.3401L51.052 42.8997H49.328L48.7346 42.8799C46.3229 42.7114 44.056 41.665 42.3618 39.938C40.6675 38.2109 39.6629 35.9228 39.5376 33.5051L39.5244 32.9175L39.5441 32.3233C39.7086 29.9187 40.7431 27.6567 42.4538 25.9613C44.1645 24.2658 46.434 23.2533 48.8368 23.1135L49.4071 23.097H51.0487L51.0487 15.6665C51.0491 15.518 51.0095 15.3722 50.9341 15.2444C50.8587 15.1166 50.7503 15.0115 50.6202 14.9403L50.4158 14.8644L50.2279 14.8413L37.8597 14.838L37.8663 9.90297C37.8663 8.58976 37.3453 7.33033 36.418 6.40174C35.4907 5.47316 34.233 4.95149 32.9216 4.95149H32.9249Z" fill="#0F4F3B"/>
</svg>
