<svg width="213" height="36" viewBox="0 0 213 36" fill="none" xmlns="http://www.w3.org/2000/svg">
<path d="M98.8594 0.87793H108.026V8.32077H98.8594V0.87793ZM98.8594 11.4325H107.984V35.1907H98.8594V11.4325Z" fill="#0F4F3B"/>
<path d="M122.535 0.87793H113.41V35.2327H122.535V0.87793Z" fill="#0F4F3B"/>
<path d="M137.082 0.87793H127.957V35.2327H137.082V0.87793Z" fill="#0F4F3B"/>
<path d="M142.465 0.87793H151.632V8.32077H142.465V0.87793ZM142.465 11.4325H151.59V35.1907H142.465V11.4325Z" fill="#0F4F3B"/>
<path d="M0 27.7476V0.877651H8.83049V4.19961C9.67148 3.14836 10.7227 2.2653 12.0683 1.5084C13.3719 0.751501 15.0959 0.373047 17.2405 0.373047C19.3009 0.373047 20.9829 0.793562 22.2444 1.67661C23.5059 2.55966 24.431 3.61089 25.0197 4.91443C26.1551 3.40064 27.5007 2.2653 29.0986 1.5084C30.6965 0.751501 32.5046 0.373047 34.523 0.373047C37.1722 0.373047 39.3588 1.17199 41.0408 2.81194C42.7648 4.45189 43.6058 6.76465 43.6058 9.79224V27.7476H34.4809V11.7686C34.4809 10.465 34.1025 9.49788 33.3877 8.90918C32.6308 8.27843 31.6636 7.9841 30.4442 7.9841C29.435 7.9841 28.5099 8.27843 27.6689 8.90918C26.8279 9.53993 26.4074 10.3389 26.4074 11.3481V27.7896H17.2825V11.8527C17.2825 10.5491 16.9041 9.58198 16.1892 8.99328C15.4744 8.36253 14.5072 8.06818 13.2457 8.06818C12.2365 8.06818 11.3114 8.36255 10.4284 8.95124C9.54533 9.53994 9.12484 10.3389 9.12484 11.3481V27.7896H0V27.7476Z" fill="#0F4F3B"/>
<path d="M63.5764 27.7477V24.8042C62.7354 26.0236 61.6421 26.9067 60.3386 27.4533C58.993 28 57.5633 28.2523 56.0495 28.2523C54.83 28.2523 53.6526 28.0841 52.5593 27.7477C51.466 27.4113 50.5409 26.9067 49.6999 26.1918C48.901 25.519 48.2282 24.678 47.7656 23.6688C47.3031 22.6596 47.0508 21.5243 47.0508 20.2207C47.0508 17.4034 47.9338 15.343 49.742 14.0815C51.5501 12.82 53.989 12.0631 57.1007 11.8108C58.236 11.7267 59.3294 11.6846 60.3806 11.6846C61.4319 11.6846 62.399 11.6846 63.24 11.7267V10.0026C63.24 9.07751 62.9456 8.36267 62.3569 7.90012C61.7682 7.43757 60.8852 7.2273 59.7078 7.2273C58.8248 7.2273 58.0679 7.43755 57.4371 7.85805C56.8064 8.27855 56.3859 9.11957 56.1756 10.297L47.9759 9.16162C48.3123 6.68067 49.4897 4.57817 51.5081 2.85412C53.5265 1.17213 56.3438 0.289062 59.9181 0.289062C61.6 0.289062 63.1979 0.457278 64.6697 0.751627C66.1414 1.04598 67.445 1.59263 68.5383 2.30748C69.6316 3.06438 70.4726 4.07357 71.1034 5.37712C71.7341 6.68067 72.0284 8.32061 72.0284 10.2549V27.6636H63.5764V27.7477ZM63.24 17.1511C62.7354 17.1091 62.0626 17.109 61.3057 17.109C60.5067 17.109 59.7499 17.1511 59.0771 17.1931C58.2781 17.2352 57.5633 17.4034 56.9325 17.7819C56.3018 18.1183 55.9654 18.6649 55.9654 19.4218C55.9654 20.2207 56.2597 20.8095 56.8484 21.23C57.4371 21.6084 58.194 21.8186 59.1191 21.8186C60.4227 21.8186 61.4318 21.5243 62.1467 20.9356C62.8615 20.3469 63.24 19.5479 63.24 18.5808V17.1511Z" fill="#0F4F3B"/>
<path d="M77.457 27.7479V0.87793H86.2875V3.90553C87.2967 2.68608 88.39 1.84509 89.6095 1.46664C90.7869 1.08819 91.9643 0.87793 93.1417 0.87793H95.0339V8.69921H92.3427C90.5766 8.69921 89.189 9.03562 88.1377 9.70842C87.0865 10.3812 86.5819 11.3904 86.5819 12.736V27.7058H77.457V27.7479Z" fill="#0F4F3B"/>
<path d="M168.872 28.2523C164.54 28.2102 161.134 26.9487 158.695 24.3837C156.257 21.8187 155.037 18.4126 155.079 14.1235C155.121 9.83441 156.341 6.42838 158.822 3.98948C161.303 1.50853 164.709 0.289079 169.04 0.331129C173.413 0.373179 176.819 1.63468 179.258 4.11562C181.697 6.59657 182.916 10.0026 182.874 14.2917C182.832 18.5808 181.613 21.9868 179.132 24.5098C176.651 27.0328 173.245 28.2943 168.872 28.2523ZM168.914 20.8935C170.343 20.8935 171.563 20.3469 172.488 19.2536C173.413 18.1603 173.918 16.4783 173.918 14.2496C173.918 12.021 173.455 10.3811 172.53 9.28776C171.605 8.23651 170.385 7.68987 168.956 7.68987C167.526 7.68987 166.307 8.19446 165.381 9.20366C164.456 10.2129 163.994 11.8948 163.952 14.1655C163.952 16.3942 164.372 18.0762 165.297 19.1695C166.307 20.3469 167.484 20.8935 168.914 20.8935Z" fill="#0F4F3B"/>
<path d="M185.945 27.7897V0.877699H194.86V4.19965C195.743 3.14841 196.836 2.22331 198.182 1.46641C199.527 0.709509 201.209 0.331055 203.27 0.331055C205.877 0.331055 208.064 1.13001 209.872 2.72791C211.68 4.3258 212.563 6.63855 212.563 9.66615V27.7476H203.438V11.8107C203.438 10.381 203.06 9.37178 202.261 8.78308C201.462 8.23643 200.453 7.94208 199.275 7.94208C198.266 7.94208 197.299 8.19439 196.416 8.74104C195.533 9.28769 195.07 10.1287 195.07 11.222V27.7897H185.945Z" fill="#0F4F3B"/>
</svg>
