<svg width="272" height="38" viewBox="0 0 272 38" fill="none" xmlns="http://www.w3.org/2000/svg">
<path d="M0 27.3335V0.885742H12.921L18.2025 16.8123L23.2955 0.885742H35.8392V27.3335H27.6339V9.76602L21.6921 27.3335H13.5812L7.6394 9.76602V27.3335H0Z" fill="#0F4F3B"/>
<path d="M55.7392 27.3336V24.4378C54.8904 25.6927 53.8529 26.5614 52.6269 27.044C51.3065 27.6232 49.9861 27.8162 48.4771 27.8162C47.251 27.8162 46.2135 27.6232 45.1761 27.3336C44.1386 26.9475 43.1955 26.4649 42.441 25.7892C41.6865 25.1135 41.0263 24.2448 40.5547 23.2795C40.0832 22.3143 39.8945 21.156 39.8945 19.9012C39.8945 17.102 40.7434 15.0749 42.441 13.8201C44.1386 12.5653 46.4965 11.7931 49.5145 11.6C50.552 11.5035 51.6837 11.5035 52.7212 11.5035C53.7586 11.5035 54.7018 11.5035 55.4563 11.5035V9.76607C55.4563 8.80082 55.1733 8.12515 54.6074 7.73905C54.0416 7.25642 53.1927 7.06337 52.061 7.06337C51.2122 7.06337 50.4577 7.25642 49.8918 7.73905C49.2316 8.12515 48.8543 8.99387 48.6657 10.1522L40.7434 8.99387C41.0263 6.58075 42.1581 4.45721 44.1386 2.81628C46.1192 1.17536 48.76 0.306641 52.2496 0.306641C53.8529 0.306641 55.4563 0.49969 56.871 0.789265C58.2857 1.07884 59.5117 1.56146 60.5492 2.33366C61.5866 3.10586 62.4355 4.07111 63.0014 5.32593C63.5672 6.58075 63.8502 8.22167 63.8502 10.1522V27.3336H55.7392ZM55.4563 16.9089C54.9847 16.9089 54.3245 16.9089 53.57 16.9089C52.8155 16.9089 52.061 16.9089 51.4008 17.0054C50.6463 17.0054 49.9861 17.1985 49.3259 17.5846C48.6657 17.9707 48.3828 18.4533 48.3828 19.2255C48.3828 19.9977 48.6657 20.5768 49.2316 20.9629C49.7975 21.349 50.552 21.5421 51.4008 21.5421C52.6269 21.5421 53.6643 21.2525 54.3245 20.6734C54.9847 20.0942 55.362 19.322 55.362 18.3568V16.9089H55.4563Z" fill="#0F4F3B"/>
<path d="M68.8477 37.7584V0.885944H77.4302V3.68516C78.1847 2.81644 79.2221 2.04424 80.4482 1.36857C81.6743 0.692895 83.089 0.40332 84.881 0.40332C86.39 0.40332 87.8047 0.692895 89.1251 1.27204C90.4455 1.85119 91.5772 2.71991 92.5204 3.87821C93.4635 5.03651 94.218 6.38786 94.7839 8.1253C95.3498 9.86275 95.6327 11.7932 95.6327 14.0133C95.6327 16.3299 95.3498 18.4535 94.6896 20.1909C94.1237 21.9283 93.2749 23.3762 92.2374 24.5345C91.2 25.6928 89.9739 26.5615 88.5592 27.1407C87.1445 27.7198 85.6355 28.0094 84.0321 28.0094C82.7117 28.0094 81.58 27.8164 80.5425 27.4303C79.5051 27.0442 78.6563 26.5615 77.9018 25.9824V37.8549H68.8477V37.7584ZM77.6188 16.2334C77.6188 17.4882 77.9961 18.4535 78.7506 19.3222C79.5051 20.0944 80.6368 20.577 82.0516 20.577C83.4663 20.577 84.5037 19.9978 85.3525 18.9361C86.2013 17.8743 86.5786 16.2334 86.5786 14.2064C86.5786 12.1793 86.2013 10.5384 85.3525 9.47665C84.5037 8.41488 83.4663 7.83573 82.0516 7.83573C80.5425 7.83573 79.5051 8.22183 78.7506 9.09055C77.9961 9.86275 77.6188 10.9245 77.6188 12.1793V16.2334Z" fill="#0F4F3B"/>
<path d="M229.463 27.9127C225.313 27.9127 222.012 26.6579 219.654 24.1483C217.296 21.6386 216.07 18.2603 216.07 14.0132C216.07 9.76607 217.296 6.3877 219.654 3.97458C222.012 1.56146 225.313 0.306641 229.463 0.306641C233.707 0.306641 237.008 1.56146 239.366 3.97458C241.724 6.3877 242.95 9.76607 242.95 14.0132C242.95 18.2603 241.724 21.6386 239.366 24.1483C237.008 26.6579 233.707 27.9127 229.463 27.9127ZM229.463 20.6734C230.878 20.6734 232.009 20.0942 232.952 19.0325C233.896 17.9707 234.273 16.3298 234.273 14.1097C234.273 11.8896 233.801 10.2487 232.952 9.28345C232.009 8.22167 230.878 7.73905 229.463 7.73905C228.048 7.73905 226.916 8.22167 226.068 9.28345C225.219 10.3452 224.747 11.8896 224.747 14.2062C224.747 16.4263 225.219 18.0672 226.068 19.129C226.916 20.0942 228.048 20.6734 229.463 20.6734Z" fill="#0F4F3B"/>
<path d="M246.914 27.3335V0.885742H255.685V9.95907H263.136V0.885742H272.001V27.3335H263.136V17.6811H255.685V27.3335H246.914Z" fill="#0F4F3B"/>
<path d="M138.169 0.885742L126.852 27.3335H135.906L144.3 7.54595V27.3335H152.882V0.885742H138.169Z" fill="#0F4F3B"/>
<path d="M166.275 0.885742L154.957 27.3335H164.011L172.499 7.54595V27.3335H180.988V0.885742H166.275Z" fill="#0F4F3B"/>
<path d="M107.516 27.3335H99.0273V0.885742H107.516V15.3645L115.815 0.885742H124.775V27.3335H116.192V12.6618L107.516 27.3335Z" fill="#0F4F3B"/>
<path d="M194.946 27.3335H186.363V0.885742H194.946V15.3645L203.245 0.885742H212.111V27.3335H203.623V12.6618L194.946 27.3335Z" fill="#0F4F3B"/>
</svg>
