<svg>
  <symbol fill="none" xmlns="http://www.w3.org/2000/svg" viewBox="0 0 27 23" id="right-arrow">
    <path d="M0 11.5H26M26 11.5L16.4667 0.5M26 11.5L16.4667 22.5" stroke="currentColor"></path>
  </symbol>
  <symbol fill="none" xmlns="http://www.w3.org/2000/svg" viewBox="0 0 7 4" id="down-arrow">
    <path d="M1 0.75L4 3.25L6.5 0.75" stroke="#141414"></path>
  </symbol>
  <symbol fill="none" xmlns="http://www.w3.org/2000/svg" viewBox="0 0 16 16" id="in">
    <path fill-rule="evenodd" clip-rule="evenodd" d="M14.4136 0.333008H1.63071C1.01929 0.333008 0.5 0.816579 0.5 1.41229V14.253C0.5 14.8494 0.840714 15.333 1.45214 15.333H14.235C14.8471 15.333 15.5 14.8494 15.5 14.253V1.41229C15.5 0.816579 15.0257 0.333008 14.4136 0.333008ZM6.21429 6.04729H8.23357V7.07658H8.25572C8.56357 6.52158 9.47286 5.95801 10.5971 5.95801C12.755 5.95801 13.3571 7.10372 13.3571 9.22587V13.1902H11.2143V9.61658C11.2143 8.66658 10.835 7.83301 9.94786 7.83301C8.87071 7.83301 8.35714 8.56229 8.35714 9.75944V13.1902H6.21429V6.04729ZM2.64286 13.1902H4.78571V6.04729H2.64286V13.1902ZM5.05357 3.54729C5.05357 4.28729 4.45429 4.88658 3.71429 4.88658C2.97429 4.88658 2.375 4.28729 2.375 3.54729C2.375 2.80729 2.97429 2.20801 3.71429 2.20801C4.45429 2.20801 5.05357 2.80729 5.05357 3.54729Z" fill="#141414"></path>
  </symbol>
  <symbol fill="none" xmlns="http://www.w3.org/2000/svg" viewBox="0 0 18 15" id="tg">
    <path d="M1.19635 6.54276C5.86787 4.50745 8.98295 3.16565 10.5416 2.51736C14.9918 0.666356 15.9165 0.344818 16.5192 0.334087C16.6518 0.331865 16.9482 0.364718 17.1402 0.520509C17.3023 0.652056 17.3469 0.829757 17.3683 0.954477C17.3896 1.0792 17.4162 1.36331 17.3951 1.58532C17.1539 4.1192 16.1104 10.2683 15.5795 13.1063C15.3549 14.3071 14.9126 14.7098 14.4844 14.7492C13.5538 14.8348 12.8472 14.1342 11.9459 13.5433C10.5355 12.6188 9.73871 12.0433 8.36969 11.1411C6.78756 10.0985 7.81319 9.5255 8.71485 8.589C8.95081 8.34391 13.051 4.61449 13.1303 4.27617C13.1403 4.23386 13.1495 4.07614 13.0558 3.99286C12.9621 3.90958 12.8238 3.93806 12.724 3.96071C12.5825 3.99281 10.3294 5.48203 5.96469 8.42836C5.32516 8.86751 4.74589 9.08148 4.22688 9.07027C3.65472 9.05791 2.5541 8.74676 1.73591 8.48079C0.732362 8.15458 -0.065237 7.98211 0.00421599 7.4281C0.0403914 7.13953 0.43777 6.84442 1.19635 6.54276Z" fill="#141414"></path>
  </symbol>
  <symbol fill="none" xmlns="http://www.w3.org/2000/svg" viewBox="0 0 20 13" id="vk">
    <path d="M10.8932 12.667C4.05996 12.667 0.162399 7.9748 0 0.166992H3.42286C3.53529 5.89772 6.05871 8.32515 8.05746 8.82565V0.166992H11.2805V5.10943C13.2542 4.89672 15.3279 2.64447 16.0275 0.166992H19.2505C18.9869 1.45188 18.4614 2.66847 17.7069 3.74065C16.9524 4.81284 15.9852 5.71756 14.8657 6.39822C16.1153 7.02017 17.2191 7.90047 18.1041 8.98105C18.9891 10.0616 19.6353 11.3179 20 12.667H16.4522C16.1248 11.4952 15.4594 10.4463 14.5394 9.65166C13.6194 8.85703 12.4858 8.35206 11.2805 8.20002V12.667H10.8932Z" fill="#141414"></path>
  </symbol>
  <symbol fill="none" xmlns="http://www.w3.org/2000/svg" viewBox="0 0 20 14" id="yt">
    <path fill-rule="evenodd" clip-rule="evenodd" d="M17.7965 0.73125C18.6165 0.950754 19.261 1.59516 19.4804 2.41516C19.8771 3.89994 19.8787 6.99965 19.8787 6.99965C19.8787 6.99965 19.8787 10.0994 19.4804 11.5842C19.261 12.4042 18.6165 13.0486 17.7965 13.268C16.3118 13.6663 10.3553 13.6663 10.3553 13.6663C10.3553 13.6663 4.39897 13.6663 2.91418 13.268C2.09418 13.0486 1.44978 12.4042 1.23027 11.5842C0.832031 10.0994 0.832031 6.99965 0.832031 6.99965C0.832031 6.99965 0.832031 3.89994 1.23027 2.41516C1.44978 1.59516 2.09418 0.950754 2.91418 0.73125C4.39897 0.333008 10.3553 0.333008 10.3553 0.333008C10.3553 0.333008 16.3118 0.333008 17.7965 0.73125ZM13.3971 7.00076L8.44883 9.85742V4.14406L13.3971 7.00076Z" fill="#141414"></path>
  </symbol>
  <symbol fill="none" xmlns="http://www.w3.org/2000/svg" viewBox="0 0 20 20" id="cross">
    <path d="M9.99916 10L1 19M9.99916 10L1 1M9.99916 10L19 19M9.99916 10L19 1" stroke="currentColor"></path>
  </symbol>
    <symbol fill="none" xmlns="http://www.w3.org/2000/svg" viewBox="0 0 24 24" id="arrow-down">
    <path d="M12 0.5L12 22.5M12 22.5L23 12.9666M12 22.5L0.999999 12.9666" stroke="currentColor" stroke-opacity="1"></path>
  </symbol>
  <symbol fill="none" xmlns="http://www.w3.org/2000/svg" viewBox="0 0 19 15" id="left-arrow">
    <path d="M18.1111 7.5L0.999973 7.5M0.999973 7.5L7.27405 0.5M0.999973 7.5L7.27405 14.5" stroke="currentColor"></path>
  </symbol>
</svg>